# xmcd
#
# Track frame offsets: 
#        150
#        36206
#        84319
#        129746
#        150535
#        188545
#        222704
#        232007
#        256197
#
# Disc length: 3496 seconds
#
# Revision: 2
# Processed by: cddbd v1.5.2PL0 Copyright (c) Steve Scherf et al.
# Submitted via: ExactAudioCopy v1.0b3
#
DISCID=750da609
DTITLE=Die drei Fragezeichen - 122 - und der Geisterzug
DYEAR=2008
DGENRE=Hörspiel
TTITLE0=Kein Platz mehr frei!
TTITLE1=Entgleist?
TTITLE2=Wertvolles Indiz
TTITLE3=In der Sackgasse
TTITLE4=Der "Chinesentunnel"
TTITLE5=Durchleuchtete Puppen
TTITLE6=Arg konstruiert
TTITLE7=Hände hoch!
TTITLE8=Gold!
EXTD=YEAR: 2008
EXTT0=
EXTT1=
EXTT2=
EXTT3=
EXTT4=
EXTT5=
EXTT6=
EXTT7=
EXTT8=
PLAYORDER=
